<mxfile host="app.diagrams.net" modified="2024-05-17T03:41:13.037Z" agent="Mozilla/5.0 (Macintosh; Intel Mac OS X 10_15_7) AppleWebKit/537.36 (KHTML, like Gecko) Chrome/124.0.0.0 Safari/537.36" etag="1ugY2ZBu6GauwfJGqSPr" version="24.4.0" type="github">
  <diagram id="07fea595-8f29-1299-0266-81d95cde20df" name="Page-1">
    <mxGraphModel dx="1147" dy="656" grid="1" gridSize="10" guides="1" tooltips="1" connect="1" arrows="1" fold="1" page="1" pageScale="1" pageWidth="1169" pageHeight="827" background="#ffffff" math="0" shadow="0">
      <root>
        <mxCell id="0" />
        <mxCell id="1" parent="0" />
        <mxCell id="170" value="&lt;font color=&quot;#23497d&quot;&gt;客户/供应商&lt;/font&gt;" style="swimlane;whiteSpace=wrap;fillColor=none;swimlaneFillColor=#BAC8D3;fontColor=#2F5B7C;fontFamily=Tahoma;html=1;strokeColor=none;opacity=50;" parent="1" vertex="1">
          <mxGeometry x="24.5" y="88.5" width="160" height="611.5" as="geometry">
            <mxRectangle x="20" y="20" width="80" height="23" as="alternateBounds" />
          </mxGeometry>
        </mxCell>
        <mxCell id="171" value="客户" style="whiteSpace=wrap;shadow=1;fontColor=#FFFFFF;fontFamily=Helvetica;fontStyle=0;html=1;fontSize=12;plain-purple;strokeColor=none;fillColor=#2f5b7c;gradientColor=none;spacing=6;verticalAlign=middle;rounded=1;glass=0;" parent="170" vertex="1">
          <mxGeometry x="20" y="130.5" width="120" height="60" as="geometry" />
        </mxCell>
        <mxCell id="172" value="供应商" style="whiteSpace=wrap;strokeColor=none;fillColor=#2f5b7c;shadow=1;fontColor=#FFFFFF;fontFamily=Helvetica;fontStyle=0;html=1;fontSize=12;spacing=6;verticalAlign=middle;rounded=1;glass=0;" parent="170" vertex="1">
          <mxGeometry x="20" y="450.5" width="120" height="60" as="geometry" />
        </mxCell>
        <mxCell id="176" value="&lt;font color=&quot;#23497d&quot;&gt;文件&lt;/font&gt;" style="swimlane;whiteSpace=wrap;fillColor=none;swimlaneFillColor=#BAC8D3;fontColor=#2F5B7C;fontFamily=Tahoma;html=1;strokeColor=none;opacity=25;" parent="1" vertex="1">
          <mxGeometry x="824.5" y="88.5" width="160" height="611.5" as="geometry">
            <mxRectangle x="20" y="20" width="80" height="23" as="alternateBounds" />
          </mxGeometry>
        </mxCell>
        <mxCell id="179" value="文件" style="whiteSpace=wrap;strokeColor=#005700;fillColor=#008a00;shadow=1;fontFamily=Helvetica;fontStyle=0;html=1;fontSize=12;spacing=6;verticalAlign=middle;fontColor=#ffffff;rounded=1;glass=0;" parent="176" vertex="1">
          <mxGeometry x="20" y="290.5" width="120" height="60" as="geometry" />
        </mxCell>
        <mxCell id="180" value="&lt;font color=&quot;#23497d&quot;&gt;订单&lt;/font&gt;" style="swimlane;whiteSpace=wrap;fillColor=none;swimlaneFillColor=#BAC8D3;fontColor=#2F5B7C;fontFamily=Tahoma;html=1;strokeColor=none;opacity=50;" parent="1" vertex="1">
          <mxGeometry x="664.5" y="88.5" width="160" height="611.5" as="geometry">
            <mxRectangle x="20" y="20" width="80" height="23" as="alternateBounds" />
          </mxGeometry>
        </mxCell>
        <mxCell id="181" value="物流" style="whiteSpace=wrap;fillColor=#2f5b7c;strokeColor=none;shadow=1;fontColor=#FFFFFF;fontFamily=Helvetica;fontStyle=0;html=1;fontSize=12;spacing=6;verticalAlign=middle;rounded=1;glass=0;" parent="180" vertex="1">
          <mxGeometry x="20" y="290.5" width="120" height="60" as="geometry" />
        </mxCell>
        <mxCell id="183" value="&lt;font color=&quot;#23497d&quot;&gt;询价&lt;/font&gt;" style="swimlane;whiteSpace=wrap;fillColor=none;swimlaneFillColor=#BAC8D3;fontColor=#2F5B7C;fontFamily=Tahoma;html=1;strokeColor=none;opacity=25;" parent="1" vertex="1">
          <mxGeometry x="184.5" y="88.5" width="160" height="611.5" as="geometry">
            <mxRectangle x="184.5" y="88.5" width="80" height="23" as="alternateBounds" />
          </mxGeometry>
        </mxCell>
        <mxCell id="184" value="询价" style="whiteSpace=wrap;shadow=1;fontColor=#FFFFFF;fontFamily=Helvetica;fontStyle=0;html=1;fontSize=12;plain-purple;strokeColor=none;fillColor=#2f5b7c;gradientColor=none;spacing=6;verticalAlign=middle;rounded=1;glass=0;" parent="183" vertex="1">
          <mxGeometry x="20" y="290.5" width="120" height="60" as="geometry" />
        </mxCell>
        <mxCell id="187" value="&lt;font color=&quot;#23497d&quot;&gt;报价&lt;/font&gt;" style="swimlane;whiteSpace=wrap;fillColor=none;swimlaneFillColor=#BAC8D3;fontColor=#2F5B7C;fontFamily=Tahoma;html=1;strokeColor=none;opacity=50;" parent="1" vertex="1">
          <mxGeometry x="344.5" y="88.5" width="160" height="611.5" as="geometry">
            <mxRectangle x="20" y="20" width="80" height="23" as="alternateBounds" />
          </mxGeometry>
        </mxCell>
        <mxCell id="IXO58o6YaiK-rSalYdML-223" value="客户报价" style="whiteSpace=wrap;shadow=1;fontColor=#FFFFFF;fontFamily=Helvetica;fontStyle=0;html=1;fontSize=12;plain-purple;strokeColor=none;fillColor=#2f5b7c;gradientColor=none;spacing=6;verticalAlign=middle;rounded=1;glass=0;" vertex="1" parent="187">
          <mxGeometry x="20" y="130.5" width="120" height="60" as="geometry" />
        </mxCell>
        <mxCell id="IXO58o6YaiK-rSalYdML-224" value="供应商报价" style="whiteSpace=wrap;shadow=1;fontColor=#FFFFFF;fontFamily=Helvetica;fontStyle=0;html=1;fontSize=12;plain-purple;strokeColor=none;fillColor=#2f5b7c;gradientColor=none;spacing=6;verticalAlign=middle;rounded=1;glass=0;" vertex="1" parent="187">
          <mxGeometry x="20" y="450.5" width="120" height="60" as="geometry" />
        </mxCell>
        <mxCell id="193" value="&lt;font color=&quot;#23497d&quot;&gt;运输&lt;/font&gt;" style="swimlane;whiteSpace=wrap;fillColor=none;swimlaneFillColor=#BAC8D3;fontColor=#2F5B7C;fontFamily=Tahoma;html=1;strokeColor=none;opacity=25;" parent="1" vertex="1">
          <mxGeometry x="504.5" y="88.5" width="160" height="611.5" as="geometry">
            <mxRectangle x="20" y="20" width="80" height="23" as="alternateBounds" />
          </mxGeometry>
        </mxCell>
        <mxCell id="194" value="订单" style="whiteSpace=wrap;strokeColor=none;fillColor=#2f5b7c;shadow=1;fontColor=#FFFFFF;fontFamily=Helvetica;fontStyle=0;html=1;fontSize=12;spacing=6;verticalAlign=middle;rounded=1;glass=0;" parent="193" vertex="1">
          <mxGeometry x="20" y="290.5" width="120" height="60" as="geometry" />
        </mxCell>
        <mxCell id="196" value="数据看板" style="swimlane;whiteSpace=wrap;fillColor=none;swimlaneFillColor=#BAC8D3;fontColor=#2F5B7C;fontFamily=Tahoma;html=1;strokeColor=none;opacity=50;rounded=0;glass=0;" parent="1" vertex="1">
          <mxGeometry x="984.5" y="88.5" width="160" height="611.5" as="geometry">
            <mxRectangle x="20" y="20" width="80" height="23" as="alternateBounds" />
          </mxGeometry>
        </mxCell>
        <mxCell id="198" value="待定" style="whiteSpace=wrap;shadow=1;fontFamily=Helvetica;fontStyle=0;html=1;fontSize=12;spacing=6;verticalAlign=middle;fillColor=#ffff88;strokeColor=#36393d;rounded=1;" parent="196" vertex="1">
          <mxGeometry x="20" y="290.5" width="120" height="60" as="geometry" />
        </mxCell>
        <mxCell id="IXO58o6YaiK-rSalYdML-228" style="edgeStyle=orthogonalEdgeStyle;rounded=0;orthogonalLoop=1;jettySize=auto;html=1;exitX=0.5;exitY=1;exitDx=0;exitDy=0;entryX=0;entryY=0.5;entryDx=0;entryDy=0;strokeWidth=2;shadow=1;flowAnimation=0;dashed=1;" edge="1" parent="1" source="171" target="184">
          <mxGeometry relative="1" as="geometry" />
        </mxCell>
        <mxCell id="IXO58o6YaiK-rSalYdML-231" style="edgeStyle=orthogonalEdgeStyle;rounded=0;orthogonalLoop=1;jettySize=auto;html=1;exitX=1;exitY=0.5;exitDx=0;exitDy=0;entryX=0.25;entryY=1;entryDx=0;entryDy=0;strokeWidth=2;dashed=1;shadow=1;flowAnimation=0;" edge="1" parent="1" source="184" target="IXO58o6YaiK-rSalYdML-223">
          <mxGeometry relative="1" as="geometry" />
        </mxCell>
        <mxCell id="IXO58o6YaiK-rSalYdML-236" style="edgeStyle=orthogonalEdgeStyle;rounded=0;orthogonalLoop=1;jettySize=auto;html=1;exitX=0.5;exitY=0;exitDx=0;exitDy=0;entryX=0.5;entryY=1;entryDx=0;entryDy=0;strokeWidth=2;shadow=1;flowAnimation=0;" edge="1" parent="1" source="IXO58o6YaiK-rSalYdML-224" target="194">
          <mxGeometry relative="1" as="geometry">
            <mxPoint x="512.75" y="474.875" as="targetPoint" />
            <Array as="points">
              <mxPoint x="425" y="500" />
              <mxPoint x="585" y="500" />
            </Array>
          </mxGeometry>
        </mxCell>
        <mxCell id="IXO58o6YaiK-rSalYdML-239" style="edgeStyle=orthogonalEdgeStyle;rounded=0;orthogonalLoop=1;jettySize=auto;html=1;exitX=1;exitY=0.5;exitDx=0;exitDy=0;entryX=0.5;entryY=0;entryDx=0;entryDy=0;strokeWidth=2;fillColor=#60a917;strokeColor=#2D7600;shadow=1;flowAnimation=0;" edge="1" parent="1" source="IXO58o6YaiK-rSalYdML-223" target="179">
          <mxGeometry relative="1" as="geometry">
            <Array as="points">
              <mxPoint x="540" y="249" />
              <mxPoint x="905" y="250" />
            </Array>
          </mxGeometry>
        </mxCell>
        <mxCell id="IXO58o6YaiK-rSalYdML-245" style="edgeStyle=orthogonalEdgeStyle;rounded=0;orthogonalLoop=1;jettySize=auto;html=1;exitX=0.75;exitY=1;exitDx=0;exitDy=0;strokeWidth=2;shadow=1;flowAnimation=0;" edge="1" parent="1" source="IXO58o6YaiK-rSalYdML-223" target="194">
          <mxGeometry relative="1" as="geometry">
            <mxPoint x="512.75" y="347.625" as="targetPoint" />
            <Array as="points">
              <mxPoint x="455" y="320" />
              <mxPoint x="585" y="320" />
            </Array>
          </mxGeometry>
        </mxCell>
        <mxCell id="IXO58o6YaiK-rSalYdML-246" style="edgeStyle=orthogonalEdgeStyle;rounded=0;orthogonalLoop=1;jettySize=auto;html=1;exitX=1;exitY=0.5;exitDx=0;exitDy=0;entryX=0.5;entryY=1;entryDx=0;entryDy=0;strokeWidth=2;fillColor=#60a917;strokeColor=#2D7600;shadow=1;flowAnimation=0;" edge="1" parent="1" source="IXO58o6YaiK-rSalYdML-224" target="179">
          <mxGeometry relative="1" as="geometry">
            <mxPoint x="910" y="310" as="targetPoint" />
            <Array as="points">
              <mxPoint x="620" y="569" />
              <mxPoint x="905" y="570" />
            </Array>
          </mxGeometry>
        </mxCell>
        <mxCell id="IXO58o6YaiK-rSalYdML-251" style="edgeStyle=orthogonalEdgeStyle;rounded=0;orthogonalLoop=1;jettySize=auto;html=1;exitX=1;exitY=0.5;exitDx=0;exitDy=0;entryX=0;entryY=0.5;entryDx=0;entryDy=0;strokeWidth=2;shadow=1;flowAnimation=0;" edge="1" parent="1" source="194" target="181">
          <mxGeometry relative="1" as="geometry" />
        </mxCell>
        <mxCell id="IXO58o6YaiK-rSalYdML-257" style="edgeStyle=orthogonalEdgeStyle;rounded=0;orthogonalLoop=1;jettySize=auto;html=1;exitX=1;exitY=0.5;exitDx=0;exitDy=0;entryX=0;entryY=0.5;entryDx=0;entryDy=0;strokeWidth=2;shadow=1;flowAnimation=0;" edge="1" parent="1" source="171" target="IXO58o6YaiK-rSalYdML-223">
          <mxGeometry relative="1" as="geometry" />
        </mxCell>
        <mxCell id="IXO58o6YaiK-rSalYdML-258" style="edgeStyle=orthogonalEdgeStyle;rounded=0;orthogonalLoop=1;jettySize=auto;html=1;exitX=1;exitY=0.5;exitDx=0;exitDy=0;entryX=0;entryY=0.5;entryDx=0;entryDy=0;strokeWidth=2;shadow=1;flowAnimation=0;" edge="1" parent="1" source="172" target="IXO58o6YaiK-rSalYdML-224">
          <mxGeometry relative="1" as="geometry" />
        </mxCell>
        <mxCell id="IXO58o6YaiK-rSalYdML-262" style="edgeStyle=orthogonalEdgeStyle;rounded=0;orthogonalLoop=1;jettySize=auto;html=1;exitX=0.75;exitY=0;exitDx=0;exitDy=0;entryX=0.25;entryY=0;entryDx=0;entryDy=0;strokeWidth=2;fillColor=#60a917;strokeColor=#2D7600;shadow=1;" edge="1" parent="1" source="194" target="179">
          <mxGeometry relative="1" as="geometry">
            <Array as="points">
              <mxPoint x="615" y="340" />
              <mxPoint x="875" y="340" />
            </Array>
          </mxGeometry>
        </mxCell>
        <mxCell id="IXO58o6YaiK-rSalYdML-263" style="edgeStyle=orthogonalEdgeStyle;rounded=0;orthogonalLoop=1;jettySize=auto;html=1;exitX=1;exitY=0.5;exitDx=0;exitDy=0;entryX=0;entryY=0.5;entryDx=0;entryDy=0;strokeWidth=2;fillColor=#60a917;strokeColor=#2D7600;shadow=1;" edge="1" parent="1" source="181" target="179">
          <mxGeometry relative="1" as="geometry" />
        </mxCell>
      </root>
    </mxGraphModel>
  </diagram>
</mxfile>
